# xmcd
# 
# Track frame offsets:
#     150
#     14907
#     44352
#     90575
#     109400
#     121490
#     171207
#     209530
#     254107
# 
# Disc length: 3572
# 
# Revision: 1
# Processed by: cddbd v1.5.2PL0 Copyright (c) Steve Scherf et al.
# Submitted via: BonkEnc v1.0.8
# 
DISCID=890df209
DTITLE=Misha Alperin - Portrait
DYEAR=1999
DGENRE=Contemporary Jazz
TTITLE0=Stolen From Norway (part 1)
TTITLE1=Russioan Winter
TTITLE2=Cry
TTITLE3=New Skomorohi
TTITLE4=Nostalgia
TTITLE5=Stolen From Norway (part 2)
TTITLE6=Jewish Dance
TTITLE7=Movement
TTITLE8=Stolen From Norway (part 3)
EXTD=YEAR: 2000
EXTT0=
EXTT1=
EXTT2=
EXTT3=
EXTT4=
EXTT5=
EXTT6=
EXTT7=
EXTT8=
PLAYORDER=
